<svg width="46" height="48" viewBox="0 0 46 48" xmlns="http://www.w3.org/2000/svg">
<path fill-rule="evenodd" clip-rule="evenodd" d="M35.3815 1.55949C34.987 3.24863 33.4448 6.10346 32.1823 7.4813C30.9557 8.82017 28.9152 10.1633 27.06 10.8535L25.3678 11.4831L26.922 12.0259C30.6216 13.3179 33.8849 16.7618 35.1082 20.6653L35.7751 22.7924L36.1519 21.2797C36.706 19.0544 37.5964 17.4439 39.2899 15.6042C40.9483 13.8027 42.4958 12.7603 44.6119 12.0195L46 11.5336L44.4007 10.8656C42.0819 9.8976 40.9427 9.10245 39.2687 7.28365C37.5832 5.45246 36.7043 3.84976 36.1372 1.57188L35.7454 0L35.3815 1.55949ZM13.7921 9.30947C13.5065 10.2409 12.6643 12.2513 11.9207 13.7773C9.56163 18.6192 5.16762 22.4551 1.36662 22.9903L0 23.1829L2.24907 23.8493C7.28314 25.3411 11.0465 29.561 13.4112 36.366L14.3686 39.1208L14.8957 37.3772C15.7605 34.5178 17.6275 30.8739 19.2868 28.807C21.3273 26.2653 23.6034 24.6825 26.419 23.8484L28.6711 23.1807L27.4118 23.0073C25.1966 22.702 22.0874 20.8799 20.1766 18.767C17.6578 15.9817 16.5333 13.88 14.5104 8.17582C14.3619 7.75694 14.181 8.04284 13.7921 9.30947ZM31.3881 31.4025C30.9769 33.1201 29.3741 35.8304 28.0739 37.0061C27.3574 37.654 26.0993 38.442 25.2786 38.7566L23.7858 39.3287L25.6163 40.1725C27.9154 41.2327 30.0739 43.5674 30.931 45.9217C31.266 46.8417 31.5473 47.7593 31.5561 47.9609C31.5646 48.1622 31.8088 47.5668 32.0979 46.6374C33.0742 43.5024 35.4515 40.8175 37.9868 39.9863C39.2381 39.5762 39.8252 39.1093 39.0901 39.1093C38.2177 39.1093 35.858 37.7124 34.6735 36.495C33.451 35.2384 32.5365 33.6205 31.9655 31.7047L31.6052 30.4958L31.3881 31.4025Z" fill="#FFDC26"/>
</svg>
