<svg width="234" height="48" viewBox="0 0 234 48" fill="none" xmlns="http://www.w3.org/2000/svg">
<path d="M182.766 17.9589C182.643 17.5967 182.417 17.2784 182.115 17.0434C181.813 16.8083 181.449 16.6668 181.068 16.6363L169.913 15.75L165.087 5.06542C164.933 4.72129 164.683 4.42901 164.367 4.22384C164.051 4.01867 163.682 3.90939 163.305 3.90918C162.928 3.90897 162.559 4.01785 162.243 4.22267C161.926 4.42749 161.676 4.71951 161.522 5.06346L156.695 15.75L145.541 16.6363C145.166 16.666 144.808 16.803 144.509 17.031C144.21 17.259 143.983 17.5682 143.856 17.9218C143.728 18.2753 143.705 18.6582 143.789 19.0246C143.873 19.391 144.061 19.7254 144.33 19.9878L152.573 28.0232L149.658 40.6467C149.569 41.0288 149.597 41.4287 149.739 41.7945C149.881 42.1603 150.129 42.4751 150.452 42.698C150.774 42.921 151.157 43.0418 151.549 43.0447C151.941 43.0477 152.325 42.9328 152.651 42.7148L163.304 35.6126L173.958 42.7148C174.291 42.936 174.684 43.0499 175.084 43.0412C175.484 43.0324 175.871 42.9014 176.195 42.6657C176.518 42.43 176.761 42.101 176.892 41.7229C177.023 41.3449 177.034 40.9358 176.926 40.5509L173.347 28.0291L182.222 20.0426C182.803 19.5182 183.016 18.7004 182.766 17.9589Z" fill="#FFDC26"/>
<path d="M135.809 17.9589C135.686 17.5967 135.46 17.2784 135.158 17.0434C134.856 16.8083 134.492 16.6668 134.111 16.6363L122.957 15.75L118.13 5.06542C117.977 4.72129 117.726 4.42901 117.41 4.22384C117.094 4.01867 116.725 3.90939 116.348 3.90918C115.972 3.90897 115.603 4.01785 115.286 4.22267C114.97 4.42749 114.72 4.71951 114.565 5.06346L109.739 15.75L98.5846 16.6363C98.2098 16.666 97.8515 16.803 97.5526 17.031C97.2537 17.259 97.0268 17.5682 96.899 17.9218C96.7713 18.2753 96.7481 18.6582 96.8322 19.0246C96.9163 19.391 97.1043 19.7254 97.3735 19.9878L105.616 28.0232L102.701 40.6467C102.613 41.0288 102.641 41.4287 102.783 41.7945C102.924 42.1603 103.172 42.4751 103.495 42.698C103.818 42.921 104.2 43.0418 104.592 43.0447C104.984 43.0477 105.369 42.9328 105.695 42.7148L116.348 35.6126L127.001 42.7148C127.334 42.936 127.727 43.0499 128.127 43.0412C128.527 43.0324 128.915 42.9014 129.238 42.6657C129.561 42.43 129.805 42.101 129.935 41.7229C130.066 41.3449 130.078 40.9358 129.969 40.5509L126.391 28.0291L135.265 20.0426C135.847 19.5182 136.06 18.7004 135.809 17.9589Z" fill="#FFDC26"/>
<path d="M88.8528 17.9589C88.7299 17.5967 88.5035 17.2784 88.2017 17.0434C87.8999 16.8083 87.5359 16.6668 87.1546 16.6363L76.0005 15.75L71.1737 5.06542C71.02 4.72129 70.77 4.42901 70.4538 4.22384C70.1376 4.01867 69.7689 3.90939 69.392 3.90918C69.0151 3.90897 68.6461 4.01785 68.3298 4.22267C68.0134 4.42749 67.763 4.71951 67.6089 5.06346L62.7822 15.75L51.6281 16.6363C51.2533 16.666 50.895 16.803 50.5961 17.031C50.2972 17.259 50.0703 17.5682 49.9425 17.9218C49.8147 18.2753 49.7915 18.6582 49.8757 19.0246C49.9598 19.391 50.1478 19.7254 50.417 19.9878L58.6598 28.0232L55.7446 40.6467C55.6561 41.0288 55.6844 41.4287 55.826 41.7945C55.9676 42.1603 56.2158 42.4751 56.5385 42.698C56.8612 42.921 57.2435 43.0418 57.6357 43.0447C58.0279 43.0477 58.412 42.9328 58.7381 42.7148L69.3913 35.6126L80.0446 42.7148C80.3778 42.936 80.7709 43.0499 81.1708 43.0412C81.5708 43.0324 81.9584 42.9014 82.2817 42.6657C82.6049 42.43 82.8482 42.101 82.9789 41.7229C83.1096 41.3449 83.1214 40.9358 83.0126 40.5509L79.4341 28.0291L88.3089 20.0426C88.89 19.5182 89.1033 18.7004 88.8528 17.9589Z" fill="#FFDC26"/>
<path d="M42.9398 17.9589C42.8168 17.5967 42.5904 17.2784 42.2886 17.0434C41.9868 16.8083 41.6228 16.6668 41.2415 16.6363L30.0874 15.75L25.2606 5.06542C25.1069 4.72129 24.8569 4.42901 24.5407 4.22384C24.2246 4.01867 23.8558 3.90939 23.4789 3.90918C23.102 3.90897 22.7331 4.01785 22.4167 4.22267C22.1003 4.42749 21.8499 4.71951 21.6958 5.06346L16.8691 15.75L5.71497 16.6363C5.34021 16.666 4.98194 16.803 4.68301 17.031C4.38409 17.259 4.15718 17.5682 4.02941 17.9218C3.90165 18.2753 3.87846 18.6582 3.9626 19.0246C4.04675 19.391 4.23467 19.7254 4.50389 19.9878L12.7467 28.0232L9.83149 40.6467C9.74298 41.0288 9.77135 41.4287 9.91292 41.7945C10.0545 42.1603 10.3027 42.4751 10.6255 42.698C10.9482 42.921 11.3304 43.0418 11.7226 43.0447C12.1149 43.0477 12.4989 42.9328 12.825 42.7148L23.4782 35.6126L34.1315 42.7148C34.4648 42.936 34.8578 43.0499 35.2577 43.0412C35.6577 43.0324 36.0453 42.9014 36.3686 42.6657C36.6918 42.43 36.9351 42.101 37.0658 41.7229C37.1965 41.3449 37.2083 40.9358 37.0995 40.5509L33.5211 28.0291L42.3958 20.0426C42.9769 19.5182 43.1902 18.7004 42.9398 17.9589Z" fill="#FFDC26"/>
<path d="M196.614 41.55C196.547 41.8434 196.546 42.1484 196.611 42.4423C196.675 42.7362 196.804 43.0113 196.988 43.247C197.171 43.4827 197.405 43.6729 197.67 43.8033C197.936 43.9337 198.227 44.001 198.522 44C198.908 44.0001 199.286 43.8832 199.608 43.664L210.261 36.404L220.914 43.664C221.247 43.8902 221.64 44.0067 222.04 43.9977C222.44 43.9887 222.828 43.8548 223.151 43.6139C223.474 43.373 223.718 43.0367 223.848 42.6502C223.979 42.2637 223.991 41.8456 223.882 41.452L220.304 28.652L229.178 20.488C229.463 20.2264 229.666 19.8854 229.762 19.5071C229.859 19.1287 229.845 18.7298 229.722 18.3595C229.599 17.9892 229.373 17.6639 229.071 17.4237C228.769 17.1835 228.405 17.039 228.024 17.008L216.87 16.1L212.043 5.17803C211.89 4.82625 211.64 4.52747 211.323 4.31774C211.007 4.10802 210.638 3.99631 210.261 3.99609C209.885 3.99588 209.516 4.10718 209.199 4.31655C208.883 4.52593 208.633 4.82443 208.478 5.17603L203.652 16.1L192.498 17.006C192.123 17.0364 191.765 17.1764 191.466 17.4095C191.167 17.6425 190.94 17.9587 190.812 18.3201C190.684 18.6815 190.661 19.0729 190.745 19.4474C190.829 19.822 191.017 20.1638 191.287 20.432L199.531 28.646L196.614 41.55ZM210.261 10.858L214.256 19.9L215.407 19.994H215.408L223.18 20.624L216.78 26.512L216.778 26.516L215.872 27.348L216.207 28.542V28.548L218.658 37.318L210.261 31.596V10.858Z" fill="#FFDC26"/>
</svg>
